<?xml version="1.0" encoding="iso-8859-1"?>
<!-- Generator: Adobe Illustrator 17.1.0, SVG Export Plug-In . SVG Version: 6.00 Build 0)  -->
<!DOCTYPE svg PUBLIC "-//W3C//DTD SVG 1.1//EN" "http://www.w3.org/Graphics/SVG/1.1/DTD/svg11.dtd">
<svg version="1.1" id="Capa_1" xmlns="http://www.w3.org/2000/svg" xmlns:xlink="http://www.w3.org/1999/xlink" x="0px" y="0px"
	 viewBox="0 0 440.125 440.125" style="enable-background:new 0 0 440.125 440.125;" xml:space="preserve">
<g>
	<path d="M328.563,424.125h-9V48c0-4.418-3.582-8-8-8H199.896V24c0-4.418-3.582-8-8-8s-8,3.582-8,8v16h-16V8c0-4.418-3.582-8-8-8
		s-8,3.582-8,8v32h-24.333c-4.418,0-8,3.582-8,8v376.125h-8c-4.418,0-8,3.582-8,8s3.582,8,8,8h16h184h17c4.418,0,8-3.582,8-8
		S332.981,424.125,328.563,424.125z M135.563,424.125V408.5h96.667c4.418,0,8-3.582,8-8s-3.582-8-8-8h-96.667v-16h96.667
		c4.418,0,8-3.582,8-8s-3.582-8-8-8h-96.667v-16h96.667c4.418,0,8-3.582,8-8s-3.582-8-8-8h-96.667v-16h96.667c4.418,0,8-3.582,8-8
		s-3.582-8-8-8h-96.667v-16.167h96.667c4.418,0,8-3.582,8-8s-3.582-8-8-8h-96.667v-16h96.667c4.418,0,8-3.582,8-8s-3.582-8-8-8
		h-96.667v-16h96.667c4.418,0,8-3.582,8-8s-3.582-8-8-8h-96.667v-16h96.667c4.418,0,8-3.582,8-8s-3.582-8-8-8h-96.667V152.5h96.667
		c4.418,0,8-3.582,8-8s-3.582-8-8-8h-96.667v-16h96.667c4.418,0,8-3.582,8-8s-3.582-8-8-8h-96.667v-16h96.667c4.418,0,8-3.582,8-8
		s-3.582-8-8-8h-96.667V56h168v16.5h-15.667c-4.418,0-8,3.582-8,8s3.582,8,8,8h15.667v16h-15.667c-4.418,0-8,3.582-8,8s3.582,8,8,8
		h15.667v16h-15.667c-4.418,0-8,3.582-8,8s3.582,8,8,8h15.667v15.833h-15.667c-4.418,0-8,3.582-8,8s3.582,8,8,8h15.667v16h-15.667
		c-4.418,0-8,3.582-8,8s3.582,8,8,8h15.667v16h-15.667c-4.418,0-8,3.582-8,8s3.582,8,8,8h15.667v16h-15.667c-4.418,0-8,3.582-8,8
		s3.582,8,8,8h15.667V296.5h-15.667c-4.418,0-8,3.582-8,8s3.582,8,8,8h15.667v16h-15.667c-4.418,0-8,3.582-8,8s3.582,8,8,8h15.667
		v16h-15.667c-4.418,0-8,3.582-8,8s3.582,8,8,8h15.667v16h-15.667c-4.418,0-8,3.582-8,8s3.582,8,8,8h15.667v15.625H135.563z"/>
	<path d="M263.896,392.5h-8c-4.418,0-8,3.582-8,8s3.582,8,8,8h8c4.418,0,8-3.582,8-8S268.314,392.5,263.896,392.5z"/>
	<path d="M263.896,360.5h-8c-4.418,0-8,3.582-8,8s3.582,8,8,8h8c4.418,0,8-3.582,8-8S268.314,360.5,263.896,360.5z"/>
	<path d="M263.896,328.5h-8c-4.418,0-8,3.582-8,8s3.582,8,8,8h8c4.418,0,8-3.582,8-8S268.314,328.5,263.896,328.5z"/>
	<path d="M263.896,296.5h-8c-4.418,0-8,3.582-8,8s3.582,8,8,8h8c4.418,0,8-3.582,8-8S268.314,296.5,263.896,296.5z"/>
	<path d="M263.896,264.333h-8c-4.418,0-8,3.582-8,8s3.582,8,8,8h8c4.418,0,8-3.582,8-8S268.314,264.333,263.896,264.333z"/>
	<path d="M263.896,232.333h-8c-4.418,0-8,3.582-8,8s3.582,8,8,8h8c4.418,0,8-3.582,8-8S268.314,232.333,263.896,232.333z"/>
	<path d="M263.896,200.333h-8c-4.418,0-8,3.582-8,8s3.582,8,8,8h8c4.418,0,8-3.582,8-8S268.314,200.333,263.896,200.333z"/>
	<path d="M263.896,168.333h-8c-4.418,0-8,3.582-8,8s3.582,8,8,8h8c4.418,0,8-3.582,8-8S268.314,168.333,263.896,168.333z"/>
	<path d="M263.896,136.5h-8c-4.418,0-8,3.582-8,8s3.582,8,8,8h8c4.418,0,8-3.582,8-8S268.314,136.5,263.896,136.5z"/>
	<path d="M263.896,104.5h-8c-4.418,0-8,3.582-8,8s3.582,8,8,8h8c4.418,0,8-3.582,8-8S268.314,104.5,263.896,104.5z"/>
	<path d="M263.896,72.5h-8c-4.418,0-8,3.582-8,8s3.582,8,8,8h8c4.418,0,8-3.582,8-8S268.314,72.5,263.896,72.5z"/>
</g>
<g>
</g>
<g>
</g>
<g>
</g>
<g>
</g>
<g>
</g>
<g>
</g>
<g>
</g>
<g>
</g>
<g>
</g>
<g>
</g>
<g>
</g>
<g>
</g>
<g>
</g>
<g>
</g>
<g>
</g>
</svg>
